<svg id="Layer_1" data-name="Layer 1" xmlns="http://www.w3.org/2000/svg" viewBox="0 0 202.08 53.25"><defs><style>.cls-1{fill:#fff;}.cls-2{fill:#f58a59;}.cls-3{isolation:isolate;}.cls-4{fill:#2b2b2b;}</style></defs><title>Digital sabotage - Icons</title><path id="Rectangle_16-2" data-name="Rectangle 16-2" class="cls-1" d="M28.13,2.16h148a25,25,0,0,1,25,25h0a25,25,0,0,1-25,25h-148a25,25,0,0,1-25-25h0A25,25,0,0,1,28.13,2.16Z"/><path id="Path_13" data-name="Path 13" class="cls-2" d="M164.29,17.17a.86.86,0,0,0-.73.46l-1.13,2.24h-4.6a2.7,2.7,0,0,0-2.7,2.7h0V34.43a2.7,2.7,0,0,0,2.7,2.7h19.4a2.7,2.7,0,0,0,2.7-2.7h0V22.56a2.7,2.7,0,0,0-2.7-2.7h-4.61l-1.13-2.24a.84.84,0,0,0-.73-.46Zm.51,1.62h5.47L171.41,21a.84.84,0,0,0,.73.46h5.12a1,1,0,0,1,1.08,1s0,0,0,.06V34.42a1,1,0,0,1-1,1.08H157.82a1,1,0,0,1-1.08-1s0,0,0-.06V22.56a1,1,0,0,1,1-1.08h5.18a.84.84,0,0,0,.73-.46Zm2.72,4a5.66,5.66,0,1,0,5.66,5.66,5.66,5.66,0,0,0-5.66-5.66h0Zm0,1.62a4,4,0,1,1-4,4,4,4,0,0,1,4-4h0Z"/><g class="cls-3"><path class="cls-4" d="M36.8,32.16H35L33.5,28.23H27.56l-1.4,3.93H24.34l5.37-14h1.7ZM33,26.76l-2.2-6a5.71,5.71,0,0,1-.21-.94h0a5.22,5.22,0,0,1-.22.94l-2.18,6Z"/><path class="cls-4" d="M47.18,32.16h-1.6v-1.7h0a4,4,0,0,1-6.45.59A5.51,5.51,0,0,1,38,27.39a6,6,0,0,1,1.25-4,4.12,4.12,0,0,1,3.33-1.49,3.21,3.21,0,0,1,3,1.62h0V17.35h1.6Zm-1.6-4.52V26.16a2.86,2.86,0,0,0-.8-2.05,2.69,2.69,0,0,0-2-.84,2.77,2.77,0,0,0-2.3,1.07,4.71,4.71,0,0,0-.84,3A4.23,4.23,0,0,0,40.41,30a2.63,2.63,0,0,0,2.16,1,2.74,2.74,0,0,0,2.17-1A3.6,3.6,0,0,0,45.58,27.63Z"/><path class="cls-4" d="M59,32.16h-1.6v-1.7h0a4,4,0,0,1-6.45.59,5.51,5.51,0,0,1-1.13-3.66,6,6,0,0,1,1.25-4,4.12,4.12,0,0,1,3.33-1.49,3.21,3.21,0,0,1,3,1.62h0V17.35H59Zm-1.6-4.52V26.16a2.86,2.86,0,0,0-.8-2.05,2.69,2.69,0,0,0-2-.84,2.77,2.77,0,0,0-2.3,1.07,4.71,4.71,0,0,0-.84,3A4.23,4.23,0,0,0,52.19,30a2.63,2.63,0,0,0,2.16,1,2.74,2.74,0,0,0,2.17-1A3.6,3.6,0,0,0,57.36,27.63Z"/><path class="cls-4" d="M75.72,27.56H68.66a3.74,3.74,0,0,0,.9,2.58,3.1,3.1,0,0,0,2.36.91A4.91,4.91,0,0,0,75,29.93v1.5a5.81,5.81,0,0,1-3.49,1A4.23,4.23,0,0,1,68.21,31,5.58,5.58,0,0,1,67,27.19a5.47,5.47,0,0,1,1.32-3.8,4.24,4.24,0,0,1,3.29-1.47,3.76,3.76,0,0,1,3,1.27,5.29,5.29,0,0,1,1.07,3.53ZM74.08,26.2A3.26,3.26,0,0,0,73.41,24a2.28,2.28,0,0,0-1.83-.77,2.59,2.59,0,0,0-1.92.81,3.68,3.68,0,0,0-1,2.12Z"/><path class="cls-4" d="M86.44,32.16h-1.6v-5.7q0-3.18-2.32-3.18a2.52,2.52,0,0,0-2,.9,3.35,3.35,0,0,0-.79,2.28v5.7h-1.6v-10h1.6v1.66h0a3.61,3.61,0,0,1,3.28-1.89A3.06,3.06,0,0,1,85.57,23,4.72,4.72,0,0,1,86.44,26Z"/><path class="cls-4" d="M94.1,32.06a3.09,3.09,0,0,1-1.49.31Q90,32.37,90,29.44V23.52H88.26V22.16H90V19.71l1.6-.52v3H94.1v1.37H91.58v5.63a2.33,2.33,0,0,0,.34,1.44,1.37,1.37,0,0,0,1.13.43,1.68,1.68,0,0,0,1-.33Z"/><path class="cls-4" d="M101.45,23.78a2,2,0,0,0-1.21-.32,2,2,0,0,0-1.71,1,4.47,4.47,0,0,0-.69,2.64v5.1h-1.6v-10h1.6v2.06h0a3.49,3.49,0,0,1,1-1.65,2.38,2.38,0,0,1,1.57-.59,2.62,2.62,0,0,1,1,.14Z"/><path class="cls-4" d="M111.15,22.16l-4.6,11.6q-1.23,3.11-3.46,3.11a3.65,3.65,0,0,1-1-.13V35.3a3,3,0,0,0,.95.18A2,2,0,0,0,104.81,34l.8-1.89-3.91-10h1.78l2.71,7.7q0,.15.21.76h.06q0-.23.2-.74l2.84-7.71Z"/></g></svg>