<svg id="Layer_1" data-name="Layer 1" xmlns="http://www.w3.org/2000/svg" viewBox="0 0 56.25 53.25"><defs><style>.cls-1{fill:#fff;}.cls-2{fill:#304352;}</style></defs><title>iPhone 67 – 1</title><circle id="Ellipse_9-2" data-name="Ellipse 9-2" class="cls-1" cx="27.75" cy="25.05" r="25"/><path class="cls-2" d="M39.1,23.55H20.18A.35.35,0,0,1,19.9,23l3.36-4.33a1.5,1.5,0,0,0-.26-2.1h0a1.5,1.5,0,0,0-2.1.26l-5.68,7.32a1.5,1.5,0,0,0,0,1.84l5.68,7.32a1.5,1.5,0,0,0,2.1.26h0a1.5,1.5,0,0,0,.26-2.1L19.9,27.12a.35.35,0,0,1,.28-.56H39.1a1.5,1.5,0,0,0,1.5-1.5h0A1.5,1.5,0,0,0,39.1,23.55Z"/></svg>