<svg xmlns="http://www.w3.org/2000/svg" viewBox="182 974.014 24.8 19.948">
  <defs>
    <style>
      .cls-1 {
        fill: #f58a59;
      }
    </style>
  </defs>
  <path id="Path_30" data-name="Path 30" class="cls-1" d="M9.165,952.4a.863.863,0,0,0-.728.458L7.305,955.1H2.7a2.7,2.7,0,0,0-2.7,2.7v11.861a2.7,2.7,0,0,0,2.7,2.7H22.1a2.7,2.7,0,0,0,2.7-2.7V957.791a2.7,2.7,0,0,0-2.7-2.7h-4.61l-1.132-2.237a.843.843,0,0,0-.728-.458Zm.512,1.617H15.15l1.132,2.237a.843.843,0,0,0,.728.458h5.122a1.048,1.048,0,0,1,1.078,1.078v11.861a1.048,1.048,0,0,1-1.078,1.078H2.7a1.048,1.048,0,0,1-1.078-1.078V957.791A1.048,1.048,0,0,1,2.7,956.713H7.817a.843.843,0,0,0,.728-.458Zm2.723,4.043a5.661,5.661,0,1,0,5.661,5.661A5.66,5.66,0,0,0,12.4,958.061Zm0,1.617a4.043,4.043,0,1,1-4.043,4.044A4.038,4.038,0,0,1,12.4,959.678Z" transform="translate(182 21.614)"/>
</svg>
