<?xml version="1.0" encoding="UTF-8" standalone="no"?>
<!DOCTYPE svg PUBLIC "-//W3C//DTD SVG 1.1//EN" "http://www.w3.org/Graphics/SVG/1.1/DTD/svg11.dtd">
<svg width="100%" height="100%" viewBox="0 0 84 14" version="1.1" xmlns="http://www.w3.org/2000/svg" xmlns:xlink="http://www.w3.org/1999/xlink" xml:space="preserve" style="fill-rule:evenodd;clip-rule:evenodd;">
    <g id="Artboard2" transform="matrix(1,0,0,1,0,-4)">
        <rect x="0" y="4" width="84" height="14" style="fill:none;"/>
        <clipPath id="_clip1">
            <rect x="0" y="4" width="84" height="14"/>
        </clipPath>
        <g clip-path="url(#_clip1)">
            <g id="Artboard1" transform="matrix(1.03746,0,0,1.12695,-56.8631,-16.9042)">
                <rect x="54.81" y="15" width="80.09" height="15.755" style="fill:none;"/>
                <g transform="matrix(1,0,0,1,0,-0.70143)">
                    <g transform="matrix(0.987965,0,0,0.887353,1.14159,2.01357)">
                        <path d="M76.64,22.74C76.224,22.718 75.815,22.85 75.49,23.11C75.202,23.36 74.979,23.675 74.84,24.03C74.689,24.415 74.592,24.819 74.55,25.23C74.454,26.02 74.454,26.82 74.55,27.61C74.593,28.021 74.69,28.425 74.84,28.81C74.977,29.168 75.201,29.488 75.49,29.74C76.178,30.224 77.102,30.224 77.79,29.74C78.079,29.488 78.303,29.168 78.44,28.81C78.59,28.425 78.687,28.021 78.73,27.61C78.826,26.82 78.826,26.02 78.73,25.23C78.688,24.819 78.591,24.415 78.44,24.03C78.301,23.675 78.078,23.36 77.79,23.11C77.465,22.85 77.056,22.718 76.64,22.74ZM76.64,22.1C77.166,22.076 77.687,22.215 78.13,22.5C78.504,22.756 78.809,23.099 79.02,23.5C79.238,23.937 79.383,24.406 79.45,24.89C79.601,25.884 79.601,26.896 79.45,27.89C79.382,28.392 79.23,28.879 79,29.33C78.791,29.732 78.485,30.076 78.11,30.33C77.183,30.865 76.037,30.865 75.11,30.33C74.734,30.076 74.428,29.732 74.22,29.33C74.002,28.893 73.857,28.424 73.79,27.94C73.639,26.946 73.639,25.934 73.79,24.94C73.857,24.456 74.002,23.987 74.22,23.55C74.43,23.149 74.736,22.805 75.11,22.55C75.558,22.24 76.095,22.082 76.64,22.1Z" style="fill:rgb(183,183,183);fill-rule:nonzero;"/>
                    </g>
                    <g transform="matrix(0.987965,0,0,0.887353,1.14159,2.01357)">
                        <path d="M81.14,23.8C81.467,23.8 81.763,23.783 82.03,23.75C82.274,23.729 82.512,23.661 82.73,23.55C82.932,23.44 83.101,23.277 83.22,23.08C83.372,22.805 83.467,22.502 83.5,22.19L84.11,22.19L84.11,30.59L83.35,30.59L83.35,24.34L81.14,24.34L81.14,23.8Z" style="fill:rgb(183,183,183);fill-rule:nonzero;"/>
                    </g>
                    <g transform="matrix(0.987965,0,0,0.887353,1.14159,2.01357)">
                        <rect x="87.37" y="26.93" width="3" height="0.7" style="fill:rgb(183,183,183);"/>
                    </g>
                    <g transform="matrix(0.987965,0,0,0.887353,1.14159,2.01357)">
                        <path d="M94.43,22.74C94.014,22.718 93.605,22.85 93.28,23.11C92.992,23.36 92.769,23.675 92.63,24.03C92.479,24.415 92.382,24.819 92.34,25.23C92.244,26.02 92.244,26.82 92.34,27.61C92.383,28.021 92.48,28.425 92.63,28.81C92.767,29.168 92.991,29.488 93.28,29.74C93.968,30.224 94.892,30.224 95.58,29.74C95.869,29.488 96.093,29.168 96.23,28.81C96.38,28.425 96.477,28.021 96.52,27.61C96.616,26.82 96.616,26.02 96.52,25.23C96.478,24.819 96.381,24.415 96.23,24.03C96.091,23.675 95.868,23.36 95.58,23.11C95.255,22.85 94.846,22.718 94.43,22.74ZM94.43,22.1C94.956,22.076 95.477,22.215 95.92,22.5C96.294,22.756 96.599,23.099 96.81,23.5C97.028,23.937 97.173,24.406 97.24,24.89C97.391,25.884 97.391,26.896 97.24,27.89C97.173,28.374 97.028,28.843 96.81,29.28C96.601,29.682 96.295,30.026 95.92,30.28C94.993,30.815 93.847,30.815 92.92,30.28C92.544,30.026 92.238,29.682 92.03,29.28C91.812,28.843 91.667,28.374 91.6,27.89C91.449,26.896 91.449,25.884 91.6,24.89C91.661,24.418 91.796,23.959 92,23.53C92.21,23.129 92.516,22.785 92.89,22.53C93.344,22.225 93.884,22.074 94.43,22.1Z" style="fill:rgb(183,183,183);fill-rule:nonzero;"/>
                    </g>
                    <g transform="matrix(0.987965,0,0,0.887353,1.14159,2.01357)">
                        <path d="M101,27.12C101.302,27.126 101.602,27.068 101.88,26.95C102.131,26.842 102.356,26.681 102.54,26.48C102.723,26.277 102.863,26.039 102.95,25.78C103.045,25.5 103.092,25.206 103.09,24.91C103.093,24.622 103.053,24.336 102.97,24.06C102.893,23.809 102.763,23.577 102.59,23.38C102.411,23.18 102.189,23.022 101.94,22.92C101.638,22.8 101.315,22.742 100.99,22.75C100.707,22.745 100.427,22.803 100.17,22.92C99.673,23.146 99.29,23.565 99.11,24.08C99.015,24.346 98.967,24.627 98.97,24.91C98.969,25.202 99.017,25.493 99.11,25.77C99.196,26.03 99.332,26.272 99.51,26.48C99.687,26.681 99.905,26.842 100.15,26.95C100.417,27.068 100.708,27.126 101,27.12ZM99.18,28.56C99.227,28.991 99.425,29.392 99.74,29.69C100.065,29.983 100.493,30.137 100.93,30.12C101.358,30.141 101.78,30.01 102.12,29.75C102.423,29.496 102.663,29.174 102.82,28.81C102.993,28.422 103.107,28.011 103.16,27.59C103.213,27.182 103.239,26.771 103.24,26.36C102.822,27.208 101.956,27.749 101.01,27.75C100.62,27.755 100.233,27.683 99.87,27.54C99.539,27.411 99.239,27.213 98.99,26.96C98.745,26.705 98.554,26.402 98.43,26.07C98.294,25.709 98.226,25.326 98.23,24.94C98.227,24.553 98.298,24.17 98.44,23.81C98.573,23.473 98.774,23.167 99.03,22.91C99.288,22.656 99.594,22.455 99.93,22.32C100.27,22.182 100.633,22.107 101,22.1C101.451,22.088 101.9,22.166 102.32,22.33C102.693,22.491 103.009,22.759 103.23,23.1C103.496,23.524 103.676,23.997 103.76,24.49C103.885,25.176 103.942,25.873 103.93,26.57C103.93,26.737 103.93,26.957 103.93,27.23C103.906,27.523 103.859,27.814 103.79,28.1C103.713,28.421 103.609,28.736 103.48,29.04C103.35,29.35 103.171,29.637 102.95,29.89C102.721,30.15 102.442,30.361 102.13,30.51C101.76,30.679 101.356,30.761 100.95,30.75C100.31,30.787 99.677,30.599 99.16,30.22C98.688,29.797 98.403,29.203 98.37,28.57L99.18,28.56Z" style="fill:rgb(183,183,183);fill-rule:nonzero;"/>
                    </g>
                    <g transform="matrix(0.987965,0,0,0.887353,1.14159,2.01357)">
                        <rect x="105.16" y="26.93" width="3" height="0.7" style="fill:rgb(183,183,183);"/>
                    </g>
                    <g transform="matrix(0.987965,0,0,0.887353,1.14159,2.01357)">
                        <path d="M114.84,30.58L109.31,30.58C109.314,30.203 109.388,29.83 109.53,29.48C109.663,29.167 109.846,28.876 110.07,28.62C110.299,28.361 110.553,28.127 110.83,27.92C111.11,27.707 111.397,27.503 111.69,27.31L112.57,26.71C112.852,26.517 113.116,26.299 113.36,26.06C113.572,25.855 113.748,25.614 113.88,25.35C114.001,25.076 114.059,24.779 114.05,24.48C114.055,24.229 114.004,23.979 113.9,23.75C113.803,23.543 113.663,23.359 113.49,23.21C113.314,23.058 113.11,22.943 112.89,22.87C112.654,22.794 112.408,22.757 112.16,22.76C111.856,22.751 111.554,22.816 111.28,22.95C111.044,23.073 110.842,23.252 110.69,23.47C110.535,23.694 110.423,23.945 110.36,24.21C110.291,24.501 110.26,24.801 110.27,25.1L109.51,25.1C109.499,24.698 109.549,24.297 109.66,23.91C109.759,23.565 109.929,23.245 110.16,22.97C110.391,22.7 110.682,22.488 111.01,22.35C111.388,22.197 111.793,22.122 112.2,22.13C112.539,22.13 112.876,22.18 113.2,22.28C113.503,22.371 113.785,22.521 114.03,22.72C114.268,22.92 114.457,23.174 114.58,23.46C114.714,23.776 114.782,24.117 114.78,24.46C114.791,24.801 114.733,25.141 114.61,25.46C114.495,25.746 114.336,26.012 114.14,26.25C113.94,26.496 113.716,26.72 113.47,26.92C113.215,27.126 112.948,27.316 112.67,27.49L111.96,27.94C111.685,28.106 111.421,28.29 111.17,28.49C110.924,28.682 110.699,28.9 110.5,29.14C110.315,29.361 110.191,29.626 110.14,29.91L114.81,29.91L114.84,30.58Z" style="fill:rgb(183,183,183);fill-rule:nonzero;"/>
                    </g>
                    <g transform="matrix(0.987965,0,0,0.887353,1.14159,2.01357)">
                        <path d="M118.88,22.74C118.464,22.718 118.055,22.85 117.73,23.11C117.442,23.36 117.219,23.675 117.08,24.03C116.929,24.415 116.832,24.819 116.79,25.23C116.694,26.02 116.694,26.82 116.79,27.61C116.833,28.021 116.93,28.425 117.08,28.81C117.217,29.168 117.441,29.488 117.73,29.74C118.418,30.224 119.342,30.224 120.03,29.74C120.319,29.488 120.543,29.168 120.68,28.81C120.83,28.425 120.927,28.021 120.97,27.61C121.066,26.82 121.066,26.02 120.97,25.23C120.928,24.819 120.831,24.415 120.68,24.03C120.541,23.675 120.318,23.36 120.03,23.11C119.705,22.85 119.296,22.718 118.88,22.74ZM118.88,22.1C119.406,22.076 119.927,22.215 120.37,22.5C120.744,22.756 121.049,23.099 121.26,23.5C121.478,23.937 121.623,24.406 121.69,24.89C121.841,25.884 121.841,26.896 121.69,27.89C121.623,28.374 121.478,28.843 121.26,29.28C121.051,29.682 120.745,30.026 120.37,30.28C119.443,30.815 118.297,30.815 117.37,30.28C116.994,30.026 116.688,29.682 116.48,29.28C116.262,28.843 116.117,28.374 116.05,27.89C115.899,26.896 115.899,25.884 116.05,24.89C116.117,24.406 116.262,23.937 116.48,23.5C116.69,23.099 116.996,22.755 117.37,22.5C117.819,22.211 118.347,22.071 118.88,22.1Z" style="fill:rgb(183,183,183);fill-rule:nonzero;"/>
                    </g>
                    <g transform="matrix(0.987965,0,0,0.887353,1.14159,2.01357)">
                        <path d="M123.38,23.8C123.707,23.8 124.003,23.783 124.27,23.75C124.514,23.729 124.752,23.661 124.97,23.55C125.172,23.44 125.341,23.277 125.46,23.08C125.612,22.805 125.707,22.502 125.74,22.19L126.35,22.19L126.35,30.59L125.59,30.59L125.59,24.34L123.37,24.34L123.38,23.8Z" style="fill:rgb(183,183,183);fill-rule:nonzero;"/>
                    </g>
                    <g transform="matrix(0.987965,0,0,0.887353,1.14159,2.01357)">
                        <path d="M129.5,22.28L134.9,22.28L134.9,23C134.633,23.273 134.317,23.64 133.95,24.1C133.547,24.615 133.189,25.164 132.88,25.74C132.509,26.433 132.204,27.159 131.97,27.91C131.701,28.78 131.546,29.68 131.51,30.59L130.69,30.59C130.733,29.917 130.83,29.248 130.98,28.59C131.131,27.954 131.346,27.334 131.62,26.74C131.902,26.107 132.237,25.498 132.62,24.92C133.089,24.248 133.6,23.607 134.15,23L129.5,23L129.5,22.28Z" style="fill:rgb(183,183,183);fill-rule:nonzero;"/>
                    </g>
                </g>
                <g transform="matrix(1,0,0,1,0,-0.403795)">
                    <g transform="matrix(0.987965,0,0,0.887353,1.14159,2.01357)">
                        <path d="M67.41,26.08C67.41,26.083 67.41,26.086 67.41,26.09C67.41,29.546 64.566,32.39 61.11,32.39C57.654,32.39 54.81,29.546 54.81,26.09C54.81,24.417 55.476,22.811 56.66,21.63C57.841,20.452 59.442,19.79 61.11,19.79C64.562,19.79 67.405,22.628 67.41,26.08Z" style="fill:none;stroke:rgb(183,183,183);stroke-width:1px;"/>
                    </g>
                    <g transform="matrix(0.987965,0,0,0.887353,1.14159,2.01357)">
                        <path d="M61.11,21.49L61.11,26.59L64.17,28.71" style="fill:none;stroke:rgb(183,183,183);stroke-width:1px;"/>
                    </g>
                </g>
            </g>
        </g>
    </g>
</svg>
