<?xml version="1.0" encoding="UTF-8" standalone="no"?>
<!DOCTYPE svg PUBLIC "-//W3C//DTD SVG 1.1//EN" "http://www.w3.org/Graphics/SVG/1.1/DTD/svg11.dtd">
<svg width="100%" height="100%" viewBox="0 0 76 14" version="1.1" xmlns="http://www.w3.org/2000/svg" xmlns:xlink="http://www.w3.org/1999/xlink" xml:space="preserve" style="fill-rule:evenodd;clip-rule:evenodd;stroke-linejoin:round;stroke-miterlimit:1.41421;">
    <rect id="Artboard2" x="0" y="0" width="76" height="14" style="fill:none;"/>
    <clipPath id="_clip1">
        <rect id="Artboard21" x="0" y="0" width="76" height="14"/>
    </clipPath>
    <g clip-path="url(#_clip1)">
        <g id="Artboard1" transform="matrix(1,0,0,0.872774,-21.76,-14.8372)">
            <g transform="matrix(1,0,0,1,0,0.50948)">
                <rect x="21.76" y="17" width="75.06" height="15.72" style="fill:none;"/>
            </g>
            <g transform="matrix(1,0,0,1,-3.76998,-1.15112)">
                <g transform="matrix(1,0,0,1.14577,0,-3.74863)">
                    <path d="M45.19,24.87L44.13,24.87L44.13,24.23L45.19,24.23L45.19,23.67C45.189,23.425 45.209,23.181 45.25,22.94C45.283,22.732 45.362,22.534 45.48,22.36C45.597,22.197 45.756,22.069 45.94,21.99C46.178,21.895 46.434,21.851 46.69,21.86L47.32,21.86L47.32,22.51L47.03,22.51L46.77,22.51C46.604,22.503 46.439,22.537 46.29,22.61C46.182,22.668 46.094,22.759 46.04,22.87C45.985,22.99 45.955,23.119 45.95,23.25L45.95,24.26L47.17,24.26L47.17,24.9L45.94,24.9L45.94,30.46L45.18,30.46L45.19,24.87ZM47.9,21.87L48.66,21.87L48.66,30.44L47.9,30.44L47.9,21.87Z" style="fill:rgb(183,183,183);fill-rule:nonzero;"/>
                </g>
                <g transform="matrix(1,0,0,1.14577,0,-3.74863)">
                    <path d="M52.72,24.05C53.151,24.041 53.578,24.13 53.97,24.31C54.324,24.478 54.638,24.72 54.89,25.02C55.138,25.315 55.328,25.654 55.45,26.02C55.706,26.844 55.706,27.726 55.45,28.55C55.328,28.916 55.138,29.255 54.89,29.55C54.638,29.848 54.324,30.087 53.97,30.25C53.169,30.594 52.261,30.594 51.46,30.25C51.106,30.087 50.792,29.848 50.54,29.55C50.292,29.255 50.102,28.916 49.98,28.55C49.724,27.726 49.724,26.844 49.98,26.02C50.102,25.654 50.292,25.315 50.54,25.02C50.792,24.72 51.106,24.478 51.46,24.31C51.855,24.128 52.286,24.039 52.72,24.05ZM52.72,24.69C52.389,24.683 52.061,24.762 51.77,24.92C51.502,25.068 51.27,25.272 51.09,25.52C50.905,25.777 50.766,26.065 50.68,26.37C50.496,27 50.496,27.67 50.68,28.3C50.766,28.605 50.905,28.893 51.09,29.15C51.27,29.398 51.502,29.602 51.77,29.75C52.366,30.056 53.074,30.056 53.67,29.75C53.938,29.602 54.17,29.398 54.35,29.15C54.535,28.893 54.674,28.605 54.76,28.3C54.944,27.67 54.944,27 54.76,26.37C54.674,26.065 54.535,25.777 54.35,25.52C54.17,25.272 53.938,25.068 53.67,24.92C53.379,24.762 53.051,24.683 52.72,24.69Z" style="fill:rgb(183,183,183);fill-rule:nonzero;"/>
                </g>
                <g transform="matrix(1,0,0,1.14577,0,-3.74863)">
                    <path d="M58,24.23L59.26,24.23L59.26,24.87L58,24.87L58,29C57.991,29.198 58.025,29.396 58.1,29.58C58.167,29.72 58.337,29.797 58.61,29.81C58.827,29.822 59.043,29.822 59.26,29.81L59.26,30.45L58.59,30.45C58.213,30.492 57.833,30.388 57.53,30.16C57.293,29.849 57.189,29.457 57.24,29.07L57.24,24.87L56.14,24.87L56.14,24.23L57.22,24.23L57.22,22.37L58,22.37L58,24.23Z" style="fill:rgb(183,183,183);fill-rule:nonzero;"/>
                </g>
                <g transform="matrix(1,0,0,1.14577,0,-3.74863)">
                    <rect x="59.61" y="31.31" width="6" height="0.6" style="fill:rgb(183,183,183);"/>
                </g>
                <g transform="matrix(1,0,0,1.14577,0,-3.74863)">
                    <path d="M68.72,24.87L67.49,24.87L67.49,30.43L66.73,30.43L66.73,24.87L65.68,24.87L65.68,24.23L66.74,24.23L66.74,23.67C66.739,23.425 66.759,23.181 66.8,22.94C66.833,22.732 66.912,22.534 67.03,22.36C67.147,22.197 67.306,22.069 67.49,21.99C67.728,21.895 67.984,21.851 68.24,21.86L68.87,21.86L68.87,22.51L68.58,22.51L68.32,22.51C68.154,22.503 67.989,22.537 67.84,22.61C67.732,22.668 67.644,22.759 67.59,22.87C67.535,22.99 67.505,23.119 67.5,23.25L67.5,24.26L68.72,24.26L68.72,24.87Z" style="fill:rgb(183,183,183);fill-rule:nonzero;"/>
                </g>
                <g transform="matrix(1,0,0,1.14577,0,-3.74863)">
                    <path d="M68.74,24.23L69.54,24.23L71.54,29.51L73.45,24.23L74.21,24.23L71.52,31.36C71.428,31.582 71.325,31.799 71.21,32.01C71.128,32.164 71.02,32.303 70.89,32.42C70.772,32.523 70.631,32.598 70.48,32.64C70.287,32.69 70.089,32.713 69.89,32.71L69.54,32.71C69.467,32.721 69.393,32.721 69.32,32.71L69.32,32L69.84,32C69.98,32.006 70.12,31.982 70.25,31.93C70.356,31.882 70.451,31.814 70.53,31.73C70.613,31.638 70.681,31.534 70.73,31.42L70.91,31.02L71.17,30.32L68.74,24.23Z" style="fill:rgb(183,183,183);fill-rule:nonzero;"/>
                </g>
                <g transform="matrix(1,0,0,1.14577,0,-3.74863)">
                    <path d="M75,24.23L75.7,24.23L75.7,25.68C75.868,25.21 76.179,24.804 76.59,24.52C77.02,24.241 77.529,24.111 78.04,24.15L78.04,24.91C77.72,24.89 77.4,24.938 77.1,25.05C76.828,25.151 76.579,25.308 76.37,25.51C76.166,25.712 76.006,25.954 75.9,26.22C75.785,26.509 75.727,26.818 75.73,27.13L75.73,30.43L75,30.43L75,24.23Z" style="fill:rgb(183,183,183);fill-rule:nonzero;"/>
                </g>
                <g transform="matrix(1,0,0,1.14577,0,-3.74863)">
                    <rect x="78.05" y="31.31" width="6" height="0.6" style="fill:rgb(183,183,183);"/>
                </g>
                <g transform="matrix(1,0,0,1.14577,0,-3.74863)">
                    <path d="M90,30.43L84.49,30.43C84.494,30.053 84.568,29.68 84.71,29.33C84.843,29.017 85.026,28.726 85.25,28.47C85.479,28.211 85.733,27.977 86.01,27.77C86.29,27.557 86.577,27.353 86.87,27.16L87.75,26.56C88.032,26.367 88.296,26.149 88.54,25.91C88.752,25.705 88.928,25.464 89.06,25.2C89.181,24.926 89.239,24.629 89.23,24.33C89.235,24.079 89.184,23.829 89.08,23.6C88.983,23.393 88.843,23.209 88.67,23.06C88.494,22.908 88.29,22.793 88.07,22.72C87.834,22.644 87.588,22.607 87.34,22.61C87.036,22.601 86.734,22.666 86.46,22.8C86.224,22.923 86.022,23.102 85.87,23.32C85.715,23.544 85.603,23.795 85.54,24.06C85.471,24.351 85.44,24.651 85.45,24.95L84.69,24.95C84.679,24.548 84.729,24.147 84.84,23.76C84.939,23.415 85.109,23.095 85.34,22.82C85.571,22.55 85.862,22.338 86.19,22.2C86.569,22.053 86.974,21.985 87.38,22C87.719,22 88.056,22.05 88.38,22.15C88.683,22.241 88.965,22.391 89.21,22.59C89.448,22.79 89.637,23.044 89.76,23.33C89.894,23.646 89.962,23.987 89.96,24.33C89.971,24.671 89.913,25.011 89.79,25.33C89.675,25.616 89.516,25.882 89.32,26.12C89.12,26.366 88.896,26.59 88.65,26.79C88.395,26.996 88.128,27.186 87.85,27.36L87.14,27.81C86.865,27.976 86.601,28.16 86.35,28.36C86.104,28.552 85.879,28.77 85.68,29.01C85.495,29.231 85.371,29.496 85.32,29.78L90,29.78L90,30.43Z" style="fill:rgb(183,183,183);fill-rule:nonzero;"/>
                </g>
                <g transform="matrix(1,0,0,1.14577,0,-3.74863)">
                    <path d="M91.91,28C91.912,28.272 91.97,28.541 92.08,28.79C92.291,29.258 92.685,29.62 93.17,29.79C93.431,29.912 93.713,29.983 94,30C94.304,30.004 94.605,29.939 94.88,29.81C95.132,29.691 95.357,29.521 95.54,29.31C95.725,29.096 95.868,28.848 95.96,28.58C96.055,28.3 96.103,28.006 96.1,27.71C96.103,27.416 96.049,27.124 95.94,26.85C95.838,26.594 95.689,26.36 95.5,26.16C95.308,25.961 95.076,25.805 94.82,25.7C94.548,25.586 94.255,25.528 93.96,25.53C93.587,25.527 93.22,25.616 92.89,25.79C92.563,25.963 92.288,26.218 92.09,26.53L91.44,26.53L92.26,22.17L96.46,22.17L96.46,22.87L92.75,22.87L92.21,25.65C92.423,25.396 92.694,25.197 93,25.07C93.316,24.935 93.656,24.867 94,24.87C94.401,24.864 94.799,24.939 95.17,25.09C95.506,25.225 95.809,25.429 96.06,25.69C96.308,25.955 96.498,26.268 96.62,26.61C96.756,26.985 96.824,27.381 96.82,27.78C96.823,28.169 96.744,28.553 96.59,28.91C96.446,29.248 96.235,29.555 95.97,29.81C95.702,30.066 95.386,30.266 95.04,30.4C94.68,30.541 94.297,30.612 93.91,30.61C93.54,30.615 93.171,30.558 92.82,30.44C92.503,30.332 92.21,30.162 91.96,29.94C91.712,29.714 91.515,29.438 91.38,29.13C91.227,28.773 91.152,28.388 91.16,28L91.91,28Z" style="fill:rgb(183,183,183);fill-rule:nonzero;"/>
                </g>
            </g>
            <g transform="matrix(1.2233,0,0,1.2233,-4.85908,-7.43853)">
                <g transform="matrix(0.774436,0,0,0.887326,4.90827,3.68662)">
                    <circle cx="28.41" cy="22.75" r="3.33" style="fill:rgb(183,183,183);"/>
                </g>
                <g transform="matrix(0.774436,0,0,0.887326,4.90827,3.68662)">
                    <path d="M28.41,27.74C26.17,27.74 21.76,28.82 21.76,31.06L21.76,32.72L35.06,32.72L35.06,31.06C35.06,28.82 30.65,27.74 28.41,27.74Z" style="fill:rgb(183,183,183);fill-rule:nonzero;"/>
                </g>
            </g>
        </g>
    </g>
</svg>
