<svg id="Layer_1" data-name="Layer 1" xmlns="http://www.w3.org/2000/svg" viewBox="0 0 193.67 53.25"><defs><style>.cls-1{isolation:isolate;}.cls-2{fill:#304352;}</style></defs><title>iPhone 67 – 1</title><g class="cls-1"><path class="cls-2" d="M9.13,31.78l2-12h3.33a5.59,5.59,0,0,1,2.77.58,4.44,4.44,0,0,1,1.65,1.77A6,6,0,0,1,19.55,25a7.45,7.45,0,0,1-1,3.9,5.93,5.93,0,0,1-2.08,2.21,6.09,6.09,0,0,1-2.95.62Zm1.67-1.22,2.41,0a6.07,6.07,0,0,0,2-.27,3.67,3.67,0,0,0,1.37-.91,5,5,0,0,0,1.05-1.83,7.72,7.72,0,0,0,.43-2.63,5.31,5.31,0,0,0-.44-2.24,2.81,2.81,0,0,0-1.24-1.37,4.59,4.59,0,0,0-2.13-.42l-1.88,0Z"/><path class="cls-2" d="M26.08,19.79l-2,12H22.6l2-12Z"/><path class="cls-2" d="M34.28,25.76h4.55l-1,6.16H37l-.18-1.46a3.54,3.54,0,0,1-3.2,1.62,4.06,4.06,0,0,1-3.25-1.5,5.85,5.85,0,0,1-1.27-3.9,8.49,8.49,0,0,1,1.54-5,4.75,4.75,0,0,1,4.07-2.19,4.4,4.4,0,0,1,4.42,3.38l-1.3.46Q37,20.65,34.7,20.65a3.32,3.32,0,0,0-3,1.87,8.39,8.39,0,0,0-1.09,4.31,4.54,4.54,0,0,0,.9,3,2.82,2.82,0,0,0,2.25,1.06,3,3,0,0,0,2.23-1,5.36,5.36,0,0,0,1.21-3H34.09Z"/><path class="cls-2" d="M45.86,19.79l-2,12H42.38l2-12Z"/><path class="cls-2" d="M57.55,21H54.08L52.27,31.78H50.81L52.61,21H49.13l.2-1.22h8.43Z"/><path class="cls-2" d="M64.26,28.27H59.88l-1.72,3.52H56.8l5.89-12h1.65l2.09,12H64.88Zm-.17-1.2-.93-5.51-2.7,5.51Z"/><path class="cls-2" d="M77.42,31.78H70l2-12h1.46L71.68,30.51h6Z"/></g><g class="cls-1"><path class="cls-2" d="M93.51,19.86l.05,3.06h-.41q-.88-2.75-3.1-2.75a2.59,2.59,0,0,0-1.91.68,2,2,0,0,0-.68,1.41A1.45,1.45,0,0,0,88,23.42a4.58,4.58,0,0,0,2.07.73,9.23,9.23,0,0,1,2.29.63A3.18,3.18,0,0,1,93.71,26a3.7,3.7,0,0,1,.54,2,4,4,0,0,1-1.13,2.88,3.76,3.76,0,0,1-2.8,1.15,4.52,4.52,0,0,1-2.72-1l-.83.74h-.31v-3.3h.38a5.05,5.05,0,0,0,1.45,2.34,3.1,3.1,0,0,0,2,.78,3.19,3.19,0,0,0,2-.72A2.24,2.24,0,0,0,93.27,29a2.13,2.13,0,0,0-.64-1.57,3.78,3.78,0,0,0-2.07-.88A10.32,10.32,0,0,1,88.38,26a3,3,0,0,1-1.31-1.12,3.05,3.05,0,0,1-.54-1.76,3.46,3.46,0,0,1,.95-2.39A3.3,3.3,0,0,1,90,19.72a4.22,4.22,0,0,1,2.54.86,3.13,3.13,0,0,0,.56-.72Z"/><path class="cls-2" d="M103.22,28.11H99.48l-1.2,3.23h2.18v.45H96.18v-.45h1.63l4.3-11.61h.27l4.12,11.61h1.58v.45h-5.62v-.45h1.91Zm-3.58-.45h3.42l-1.66-4.72h0Z"/><path class="cls-2" d="M111.63,31.33V20.44h-1.82V20h6.09a12,12,0,0,1,1.69.1,3.22,3.22,0,0,1,1.32.52,2.45,2.45,0,0,1,.91,1,2.89,2.89,0,0,1,.28,1.17q0,2.1-3.23,2.75v0q3.64.59,3.64,3a2.87,2.87,0,0,1-.32,1.26,3,3,0,0,1-1,1.15,3.58,3.58,0,0,1-1.46.6,12,12,0,0,1-1.87.12h-6v-.45Zm3.89-10.89h-1.8v4.95h1.62q1.64,0,2.1-.64a3.53,3.53,0,0,0,.46-2,3.15,3.15,0,0,0-.3-1.57,1.23,1.23,0,0,0-.76-.6A6.07,6.07,0,0,0,115.52,20.44Zm-.2,5.4h-1.6v5.49h1.65a6.17,6.17,0,0,0,1.47-.14,1.59,1.59,0,0,0,.94-.75,3.69,3.69,0,0,0,.39-1.92,3,3,0,0,0-.58-2A3,3,0,0,0,115.32,25.84Z"/><path class="cls-2" d="M128.41,32.05a4.88,4.88,0,0,1-3.88-1.92,6.29,6.29,0,0,1-1.6-4.1,6.43,6.43,0,0,1,1.67-4.47,5.11,5.11,0,0,1,3.89-1.85,4.89,4.89,0,0,1,3.74,1.88,6.4,6.4,0,0,1,0,8.59A5,5,0,0,1,128.41,32.05Zm0-11.88a3.41,3.41,0,0,0-1.74.44,2.33,2.33,0,0,0-1,1.54,18,18,0,0,0-.28,3.83,22.67,22.67,0,0,0,.16,3,3.5,3.5,0,0,0,.8,1.86,2.56,2.56,0,0,0,2,.74,3.6,3.6,0,0,0,1.69-.45,2.36,2.36,0,0,0,1.11-1.76,22.9,22.9,0,0,0,.26-4,12.1,12.1,0,0,0-.32-3.41,2.4,2.4,0,0,0-1-1.36A3.18,3.18,0,0,0,128.45,20.17Z"/><path class="cls-2" d="M136.42,20h10l.31,4h-.45a6.27,6.27,0,0,0-1.09-2.79,2.27,2.27,0,0,0-1.79-.77h-1V31.33h2.11v.45h-6.3v-.45h2.11V20.44h-1a2.27,2.27,0,0,0-1.79.77A6.27,6.27,0,0,0,136.56,24h-.45Z"/><path class="cls-2" d="M154.15,28.11h-3.74l-1.2,3.23h2.18v.45h-4.27v-.45h1.63L153,19.72h.27l4.12,11.61H159v.45H153.4v-.45h1.91Zm-3.58-.45H154l-1.66-4.72h0Z"/><path class="cls-2" d="M167.85,27.84h-2v-.45H172v.45h-1.71a3.62,3.62,0,0,1-1.45,3.24,5.34,5.34,0,0,1-3,1,4.81,4.81,0,0,1-3.85-1.85,6.53,6.53,0,0,1-1.54-4.32A6.45,6.45,0,0,1,162,21.56a5,5,0,0,1,3.92-1.83,4.26,4.26,0,0,1,2.32.7,1.14,1.14,0,0,0,.47.21q.28,0,.56-.5h.39l.12,3.2h-.45q-.73-3.16-3.46-3.16a2.86,2.86,0,0,0-2.06.64,2.75,2.75,0,0,0-.8,1.61,20.06,20.06,0,0,0-.15,2.77,26.73,26.73,0,0,0,.22,4.3,2.61,2.61,0,0,0,.88,1.59,2.54,2.54,0,0,0,1.63.53,2.91,2.91,0,0,0,1.38-.32,1.41,1.41,0,0,0,.76-.95,8.48,8.48,0,0,0,.15-1.88Z"/><path class="cls-2" d="M177.73,20.44V25.5h1.06a3.52,3.52,0,0,0,1-.11,1.28,1.28,0,0,0,.7-.59,3.09,3.09,0,0,0,.36-1.51h.46v5h-.46a2.83,2.83,0,0,0-.55-1.88,2.06,2.06,0,0,0-1.46-.45h-1.06v5.39h2.4a3.75,3.75,0,0,0,2.83-.86,4.38,4.38,0,0,0,.94-2.64h.45l-.11,3.95H173.78v-.45h1.87V20.44h-1.87V20h10l.2,3.15h-.45a3.39,3.39,0,0,0-.94-2.07,3.55,3.55,0,0,0-2.37-.63Z"/></g></svg>